<svg
      xmlns="http://www.w3.org/2000/svg"
      xml:space="preserve"
      version="1.1"
      style="shape-rendering:geometricPrecision; text-rendering:geometricPrecision; image-rendering:optimizeQuality; fill-rule:evenodd; clip-rule:evenodd"
      viewBox="0 0 420.62 554.38"
     
    >
      <defs></defs>
      <g id="Layer_x0020_1">
        <metadata id="CorelCorpID_0Corel-Layer"></metadata>
        <path
          fill="#556729"
          d="M1.57 554.38c-0.01,-0.44 -2.46,-153.75 -1.23,-217.01 0.74,-38.16 6.99,-96.57 32.48,-148.36 17.72,-36 44.66,-68.8 85.37,-89.54l32.28 -4.39c21.9,-6.8 39.46,-7.7 45.04,-7.81 4.32,4.98 10.37,12.18 17.72,21.54 -0.39,10.62 -6.13,113.86 -82.32,208.5 -31.36,-18.46 -51.28,-57.42 -51.28,-57.42 52.13,-30.97 58.88,-51.52 69.61,-68.07 10.73,-16.56 2.45,-44.16 -11.65,-26.06 -14.11,18.09 -65.01,68.07 -65.01,68.07 -12.27,-87.7 33.12,-110.39 33.12,-110.39l0.34 -0.64c-27.64,18.92 -47.12,44.59 -60.77,72.35 -24.37,49.53 -30.35,105.69 -31.07,142.44 -1.22,63.07 1.22,216.14 1.23,216.58l-13.85 0.22zm216.49 -439.34c17.47,22.75 40.96,56.05 66.08,99.4 0.27,13.62 0.62,100.64 -33.48,153.85 -24.85,-9.4 -40.14,-15.03 -40.14,-15.03 12.57,-11.04 46.61,-87.09 23.3,-91.68 -23.3,-4.6 -47.99,84.63 -47.99,84.63 -21.55,-10.35 -42.58,-21.94 -50.33,-26.28 68.93,-86.04 80.61,-179.05 82.56,-204.89zm71.3 108.53c28.78,50.84 59.27,114.6 85.02,190.51 -4.31,0.96 -8.4,-1.03 -8.4,-1.03 -42.77,-17.04 -82,-32.13 -110.36,-42.88 29.72,-47.26 33.46,-119.21 33.74,-146.6zm106.95 70.68c0,0 -16.4,-14.1 -20.54,-22.84 -4.14,-8.74 -15.18,-3.68 -13.95,4.29 1.23,7.97 11.5,45.69 12.27,51.21 0.77,5.52 20.08,6.13 21,-1.99 0.92,-8.13 2.76,-23.61 1.23,-30.66zm-88.46 28.98c0,0 -8.43,4.29 -7.51,15.49 0.92,11.19 10.89,28.36 18.09,30.66 7.21,2.3 18.7,-25.14 -10.58,-46.15zm-109.42 -240.52c15.35,-63.34 56.21,-82.7 93.65,-82.7 38.33,0 65.31,22.23 65.31,22.23 0,0 -11.65,13.03 -33.42,13.95 -21.77,0.92 -28.52,11.65 -28.98,16.41 -0.46,4.75 1.53,16.25 32.35,18.24 30.82,1.99 55.19,-25.14 55.19,-25.14 16.95,23.84 26.52,45.94 31.83,64.51 -16.87,6.83 -73.84,22.75 -197.04,-4.57 -8.01,-10.2 -14.48,-17.86 -18.9,-22.93zm217.3 32.51c7.8,30.68 3.91,50.53 3.91,50.53 -55.65,4.45 -56.73,-5.98 -77.73,-6.59 -21,-0.61 -22.69,28.06 14.41,34.19 37.1,6.13 63.01,-1.99 63.01,-1.99 -1.13,20.07 -2.53,38.3 -4.11,54.87 -17.3,-0.51 -66.77,-6.48 -137.23,-52.73l-0.13 0.2c-21.09,-34.73 -40.52,-62.06 -55.57,-81.67 118.17,25.28 175.11,10.36 193.44,3.2zm-1.01 136.18c-10.45,105.02 -28.21,141.06 -31.88,153.37 -0.95,3.17 -2.29,5.35 -3.82,6.82 -27.16,-79.89 -59.57,-146.38 -89.72,-198.56l-0.02 -0.57 -0.3 0.01c-1.8,-3.11 -3.59,-6.18 -5.38,-9.19 66.28,41.51 113.43,47.51 131.12,48.12z"
        ></path>
      </g>
    </svg>
