<svg
      xmlns="http://www.w3.org/2000/svg"
      xml:space="preserve"
      version="1.1"
      style="shape-rendering:geometricPrecision; text-rendering:geometricPrecision; image-rendering:optimizeQuality; fill-rule:evenodd; clip-rule:evenodd"
      viewBox="0 0 313.64 405.79"
     
    >
      <defs></defs>
      <g id="Layer_x0020_1">
        <metadata id="CorelCorpID_0Corel-Layer"></metadata>
        <path
          fill="#556729"
          d="M268.76 135.61c0,0 -22.17,11.9 -50.23,28.92 -21.12,-5.52 -82.36,-27.74 -81.95,-100.04l-0.14 -0.02c3.32,-12.49 5.48,-21.39 6.11,-24.05 10.61,-20.2 38.05,-50.12 105.57,-37.36 98.73,18.65 57.69,95.74 53.71,98.23 -3.98,2.49 -21.39,6.71 -72.86,-30.59 0,0 -18.15,-14.17 -21.88,12.68 -3.73,26.86 48.99,48.99 61.68,52.23zm-6.57 270.17c-0.06,-0.43 -20.14,-148.39 -56.4,-233.41 -9.42,5.88 -19.19,12.19 -28.79,18.69 0,0 -17.41,-10.44 -27.6,-29.59 -10.2,-19.15 -5.22,-21.76 -13.43,-22.26 -8.21,-0.5 -5.1,34.69 19.52,64.78 0,0 -13.7,11.34 -26.34,23.33 -5.68,-9.69 -18.35,-34.11 -23.43,-66.68l-0.05 -0.01c0.31,-0.8 0.62,-1.59 0.93,-2.38 10.57,-26.8 19.85,-57.53 26.36,-81.01 6.01,61.39 57.45,83.42 80.65,90.27 37.09,86.22 59.66,236.37 59.72,236.8l-11.15 1.45zm-136.16 -175.46c-7.88,7.66 -14.84,15.23 -17.05,19.93 0,0 -7.21,-23.75 -14.42,-18.65 -7.21,5.1 2.11,32.08 2.11,36.8 0,0 -17.66,31.83 -20.89,34.57 -0.83,0.7 -1.66,1.24 -2.49,1.6 -0.23,-13.47 2.61,-34.23 7.4,-57.21 5.42,-26.02 13.33,-54.79 22.1,-79.02 5.96,30.61 18.04,53.25 23.24,61.99zm-56.93 74.37c-0.87,-0.37 -1.72,-1.02 -2.52,-1.97 -2.74,-3.23 -15.17,-25.61 -15.17,-25.61 0,0 6.22,-19.03 15.17,-32.95 8.95,-13.93 -5.84,-15.67 -10.82,-7.21 -4.97,8.46 -12.56,24.74 -12.56,24.74 0,0 -6.31,-12.32 -13.32,-27.52 29.11,-16 53.59,-43.62 66.24,-59.59 -7.75,22.68 -14.67,48.42 -19.56,71.93 -4.83,23.18 -7.69,44.25 -7.46,58.19zm-40.98 -74.37c-7.17,-15.81 -14.58,-33.78 -16.38,-44.11 0,0 40.04,-13.68 46.01,-27.11 5.97,-13.43 -12.68,-19.4 -51.23,4.48 0,0 -7.71,-17.19 -6.37,-43.78 66.5,2.13 113.04,-29.91 128.31,-42.15 -6.46,23.16 -15.53,53 -25.8,79.07 -0.57,1.44 -1.13,2.91 -1.7,4.39 -5.54,7.86 -35.3,48.46 -72.84,69.21zm-27.68 -114.74c0.71,-8.36 2.33,-17.55 5.34,-27.35 0,0 47.75,5.84 50.36,-10.57 2.61,-16.41 -41.28,-5.84 -41.28,-5.84 0,0 25.99,-35.56 60.3,-33.82 28.82,1.46 52.37,13.88 59.18,17.82 -1.11,4.27 -2.41,9.2 -3.89,14.62 -5.75,5.22 -54.72,47.49 -130.01,45.14z"
        ></path>
      </g>
    </svg>
