<svg
      xmlns="http://www.w3.org/2000/svg"
      xml:space="preserve"
      version="1.1"
      style="shape-rendering:geometricPrecision; text-rendering:geometricPrecision; image-rendering:optimizeQuality; fill-rule:evenodd; clip-rule:evenodd"
      viewBox="0 0 359.65 724.72"
     
    >
      <defs></defs>
      <g id="Layer_x0020_1">
        <metadata id="CorelCorpID_0Corel-Layer"></metadata>
        <path
          fill="#3c4819"
          d="M251.9 132.52c5.01,7.69 14.83,26.38 10.9,50 12.23,19.64 25.84,44.23 37.91,76.21 15.43,40.91 28.34,93.9 32.59,164.05 8.43,139.15 26.3,300.52 26.36,300.99l-8.9 0.95c-0.05,-0.47 -17.95,-162.05 -26.39,-301.41 -4.19,-69.11 -16.87,-121.23 -32.03,-161.42 -10.46,-27.74 -22.12,-49.81 -32.97,-67.87 -11.69,25.15 -46.54,32.88 -60.3,31.22 0,0 7.39,-21.36 26.38,-35.61 18.99,-14.24 -34.02,-32.18 -48.79,33.5 0,0 -17.36,-0.38 -44.69,-16.34 11.21,-15.23 54.9,-71.68 91.8,-79.27 13.37,2.8 23.04,4.3 28.14,5zm-123.8 71.95c-11.63,-7.19 -24.9,-17.14 -39.29,-30.93 0,0 33.76,-24 51.43,-32.18 3.94,-1.82 6.23,-3.74 7.22,-5.53 0.4,-0.74 0.59,-1.45 0.57,-2.14 -0.14,-5.14 -11.54,-8.37 -24.93,-3.67 -19.52,6.86 -41.67,17.93 -50.64,27.17 0,0 -14.95,-14.16 -27.28,-30.46 13.73,-5.9 46.68,-16.9 105.36,-19.32 1.37,0.46 2.74,0.91 4.09,1.36 23.42,7.71 43.79,13.08 60.01,16.77 -36.68,13.59 -76.29,64.98 -86.55,78.94zm-85.63 -81.43c-0.55,-0.76 -1.08,-1.53 -1.61,-2.3 -3.4,-4.95 -6.39,-9.96 -8.49,-14.72 0,0 8.59,-1.25 17.61,-3.44 10.4,-2.52 21.36,-6.28 20.37,-10.8 -0.81,-3.7 -4.42,-6.8 -10.79,-8.26 -8.15,-1.86 -20.83,-1.06 -38,4.57 0,0 -20.04,-38.77 -21.36,-44.84 -0.46,-2.1 -0.09,-3.88 0.82,-5.27 21.98,13.27 43.46,24.73 64.03,34.61 26.53,12.75 51.57,22.88 74.23,30.91 -53.49,3.36 -83.97,13.91 -96.81,19.53zm-37.55 -87.92c1.59,-0.53 3.43,-0.65 5.29,-0.31 5.8,1.06 22.42,11.6 51.17,8.44 0,0 5.79,9.17 11.47,13.81 1.59,1.3 3.18,2.25 4.62,2.54 5.68,1.14 7.25,-7.71 1.67,-15.07 -0.9,-1.18 -1.98,-2.33 -3.26,-3.39 0,0 2.1,-0.44 5.61,-1.29 3.8,-0.92 9.25,-2.33 15.46,-4.19 14.66,33.07 29.11,52.04 37.62,61.42 -20.84,-7.6 -43.57,-16.96 -67.53,-28.47 -19.97,-9.59 -40.81,-20.68 -62.13,-33.48zm96.34 -0.79c8.37,-2.65 17.67,-6.03 26.06,-10.07 0,0 7.91,43.25 34.29,54.07 0,0 0.41,0.11 1.05,0.18 3.11,0.38 11.59,0.1 4.32,-16.31l-0.1 -0.23c-8.97,-20.04 -20.57,-40.88 -21.36,-45.89 0,0 15.49,-6.72 36.74,-11.5l1.33 -0.3c2.14,70.96 19.13,103.97 27.19,115.76 -15.3,-3.61 -33.91,-8.65 -55,-15.61 -1.04,-0.34 -2.1,-0.69 -3.15,-1.05l0.05 -0.46 -6.39 -1.7 -1.85 -0.64c-3.65,-3.1 -23.05,-20.99 -43.18,-66.26zm86.77 -30.97c8.74,-1.72 18.24,-3.02 27.9,-3.37 0,0 -7.65,53.01 14.24,63.3 0,0 17.41,7.91 6.33,-60.93 0,0 48,6.33 46.95,59.34 -0.91,45.76 -25.8,62.44 -32.59,66.14 -5.12,-0.73 -13.59,-2.1 -24.84,-4.43l-0.01 -0.77 -7.74 -0.89 -0.69 -0.15c-4.02,-4.5 -27.19,-33.99 -29.55,-118.24z"
        ></path>
      </g>
    </svg>
