<svg xmlns="http://www.w3.org/2000/svg" viewBox="0 0 512 512" shape-rendering="geometricPrecision">
  <title>Haypile drop leaf frame</title>
  <path fill="#7b9b3a" d="M186 65h1v1H186z M192 69h6v1H192z M192 70h8v1H192z M270 70h3v1H270z M192 71h11v1H192z M269 71h5v1H269z M192 72h14v1H192z M269 72h7v1H269z M192 73h17v1H192z M269 73h8v1H269z M192 74h21v1H192z M268 74h10v1H268z M192 75h9v1H192z M204 75h12v1H204z M268 75h11v1H268z M192 76h9v1H192z M205 76h13v1H205z M267 76h13v1H267z M192 77h9v1H192z M205 77h12v1H205z M221 77h12v1H221z M267 77h15v1H267z M191 78h11v1H191z M205 78h12v1H205z M221 78h19v1H221z M266 78h10v1H266z M278 78h5v1H278z M191 79h12v1H191z M205 79h11v1H205z M221 79h23v1H221z M265 79h10v1H265z M279 79h5v1H279z M191 80h25v1H191z M221 80h25v1H221z M265 80h11v1H265z M279 80h7v1H279z M191 81h25v1H191z M221 81h27v1H221z M265 81h11v1H265z M279 81h8v1H279z M191 82h25v1H191z M221 82h28v1H221z M266 82h10v1H266z M278 82h10v1H278z M194 83h22v1H194z M220 83h29v1H220z M267 83h10v1H267z M278 83h12v1H278z M196 84h20v1H196z M220 84h30v1H220z M263 84h1v1H263z M268 84h22v1H268z M198 85h18v1H198z M220 85h30v1H220z M262 85h3v1H262z M269 85h20v1H269z M186 86h1v1H186z M190 86h3v1H190z M199 86h17v1H199z M219 86h32v1H219z M262 86h4v1H262z M270 86h18v1H270z M293 86h2v1H293z M190 87h4v1H190z M199 87h17v1H199z M219 87h17v1H219z M243 87h8v1H243z M261 87h6v1H261z M270 87h18v1H270z M292 87h5v1H292z M190 88h26v1H190z M218 88h17v1H218z M244 88h7v1H244z M261 88h26v1H261z M292 88h7v1H292z M190 89h44v1H190z M244 89h7v1H244z M260 89h27v1H260z M291 89h11v1H291z M155 90h1v1H155z M190 90h44v1H190z M244 90h7v1H244z M260 90h26v1H260z M291 90h13v1H291z M190 91h43v1H190z M243 91h8v1H243z M260 91h26v1H260z M290 91h16v1H290z M190 92h43v1H190z M243 92h8v1H243z M259 92h26v1H259z M290 92h18v1H290z M157 93h1v1H157z M190 93h43v1H190z M242 93h9v1H242z M259 93h26v1H259z M289 93h21v1H289z M190 94h44v1H190z M241 94h10v1H241z M258 94h27v1H258z M288 94h23v1H288z M190 95h45v1H190z M239 95h12v1H239z M258 95h54v1H258z M190 96h61v1H190z M258 96h55v1H258z M190 97h61v1H190z M258 97h56v1H258z M162 98h1v1H162z M190 98h60v1H190z M257 98h58v1H257z M190 99h60v1H190z M257 99h58v1H257z M384 99h1v1H384z M387 99h1v1H387z M190 100h60v1H190z M260 100h42v1H260z M306 100h10v1H306z M393 100h1v1H393z M190 101h59v1H190z M266 101h34v1H266z M308 101h8v1H308z M376 101h1v1H376z M190 102h8v1H190z M206 102h42v1H206z M269 102h30v1H269z M309 102h7v1H309z M190 103h3v1H190z M207 103h40v1H207z M271 103h28v1H271z M310 103h6v1H310z M207 104h38v1H207z M256 104h2v1H256z M272 104h27v1H272z M309 104h7v1H309z M401 104h1v1H401z M207 105h16v1H207z M224 105h19v1H224z M256 105h5v1H256z M272 105h27v1H272z M308 105h8v1H308z M370 105h1v1H370z M145 106h1v1H145z M205 106h34v1H205z M256 106h9v1H256z M271 106h28v1H271z M308 106h8v1H308z M202 107h24v1H202z M256 107h44v1H256z M306 107h10v1H306z M338 107h1v1H338z M346 107h1v1H346z M192 108h34v1H192z M256 108h59v1H256z M191 109h35v1H191z M256 109h59v1H256z M191 110h35v1H191z M256 110h58v1H256z M365 110h1v1H365z M407 110h1v1H407z M191 111h35v1H191z M256 111h58v1H256z M192 112h34v1H192z M256 112h57v1H256z M192 113h34v1H192z M257 113h56v1H257z M409 113h1v1H409z M193 114h21v1H193z M218 114h8v1H218z M257 114h55v1H257z M320 114h1v1H320z M154 115h1v1H154z M193 115h18v1H193z M219 115h7v1H219z M257 115h31v1H257z M291 115h20v1H291z M328 115h1v1H328z M365 115h1v1H365z M403 115h1v1H403z M405 115h2v1H405z M194 116h16v1H194z M219 116h7v1H219z M257 116h15v1H257z M273 116h14v1H273z M294 116h16v1H294z M326 116h1v1H326z M365 116h1v1H365z M194 117h16v1H194z M219 117h6v1H219z M258 117h13v1H258z M278 117h9v1H278z M298 117h10v1H298z M153 118h1v1H153z M195 118h15v1H195z M218 118h7v1H218z M258 118h12v1H258z M279 118h8v1H279z M326 118h1v1H326z M196 119h14v1H196z M218 119h7v1H218z M258 119h12v1H258z M279 119h7v1H279z M313 119h1v1H313z M321 119h1v1H321z M325 119h1v1H325z M196 120h16v1H196z M217 120h8v1H217z M259 120h11v1H259z M278 120h8v1H278z M197 121h17v1H197z M215 121h11v1H215z M259 121h12v1H259z M277 121h8v1H277z M365 121h1v1H365z M198 122h28v1H198z M260 122h12v1H260z M276 122h8v1H276z M317 122h1v1H317z M323 122h1v1H323z M370 122h1v1H370z M411 122h1v1H411z M413 122h1v1H413z M199 123h23v1H199z M223 123h3v1H223z M260 123h14v1H260z M275 123h9v1H275z M364 123h1v1H364z M199 124h22v1H199z M223 124h3v1H223z M261 124h22v1H261z M373 124h1v1H373z M201 125h19v1H201z M223 125h4v1H223z M262 125h21v1H262z M342 125h1v1H342z M202 126h17v1H202z M224 126h3v1H224z M263 126h20v1H263z M362 126h1v1H362z M376 126h1v1H376z M204 127h13v1H204z M224 127h3v1H224z M265 127h14v1H265z M280 127h3v1H280z M305 127h1v1H305z M377 127h1v1H377z M206 128h8v1H206z M224 128h4v1H224z M267 128h10v1H267z M280 128h3v1H280z M320 128h1v1H320z M361 128h1v1H361z M224 129h4v1H224z M280 129h3v1H280z M360 129h1v1H360z M368 129h1v1H368z M225 130h3v1H225z M279 130h3v1H279z M382 130h1v1H382z M225 131h3v1H225z M279 131h3v1H279z M328 131h1v1H328z M225 132h3v1H225z M279 132h3v1H279z M301 132h1v1H301z M307 132h1v1H307z M369 132h1v1H369z M386 132h1v1H386z M225 133h4v1H225z M279 133h3v1H279z M323 133h1v1H323z M339 133h1v1H339z M357 133h1v1H357z M225 134h4v1H225z M279 134h3v1H279z M318 134h1v1H318z M369 134h1v1H369z M226 135h3v1H226z M279 135h3v1H279z M336 135h1v1H336z M226 136h3v1H226z M231 136h1v1H231z M279 136h3v1H279z M304 136h1v1H304z M394 136h1v1H394z M179 137h1v1H179z M226 137h3v1H226z M414 138h1v1H414z M352 139h1v1H352z M351 140h1v1H351z M370 140h1v1H370z M405 140h1v1H405z M296 141h2v1H296z M299 142h2v1H299z M317 142h1v1H317z M347 144h1v1H347z M346 145h1v1H346z M371 145h1v1H371z M344 147h1v1H344z M393 147h1v1H393z M343 148h1v1H343z M372 149h1v1H372z M397 150h1v1H397z M339 151h1v1H339z M165 152h1v1H165z M178 152h1v1H178z M338 152h1v1H338z M321 153h1v1H321z M372 153h1v1H372z M322 154h1v1H322z M335 154h1v1H335z M405 154h1v1H405z M324 155h1v1H324z M377 155h1v1H377z M409 155h1v1H409z M325 156h1v1H325z M332 156h1v1H332z M378 156h1v1H378z M394 156h1v1H394z M327 157h1v1H327z M372 157h1v1H372z M328 158h1v1H328z M181 159h1v1H181z M329 159h1v1H329z M331 160h1v1H331z M332 161h1v1H332z M333 162h1v1H333z M367 162h1v1H367z M383 162h1v1H383z M176 163h1v1H176z M334 163h1v1H334z M344 163h1v1H344z M384 163h1v1H384z M335 164h1v1H335z M385 164h1v1H385z M337 165h1v1H337z M352 165h1v1H352z M365 165h1v1H365z M145 166h1v1H145z M338 166h1v1H338z M339 167h1v1H339z M364 167h1v1H364z M391 169h1v1H391z M116 172h1v1H116z M149 172h1v1H149z M345 173h1v1H345z M360 173h1v1H360z M346 174h1v1H346z M163 176h1v1H163z M347 176h1v1H347z M373 176h1v1H373z M348 177h1v1H348z M349 178h1v1H349z M356 178h1v1H356z M397 178h1v1H397z M350 179h1v1H350z M355 179h1v1H355z M351 180h1v1H351z M354 180h1v1H354z M353 181h1v1H353z M353 183h1v1H353z M354 184h1v1H354z M388 185h1v1H388z M355 186h1v1H355z M356 187h1v1H356z M387 187h1v1H387z M357 189h1v1H357z M93 190h1v1H93z M358 190h1v1H358z M95 191h1v1H95z M152 192h1v1H152z M359 192h1v1H359z M363 192h2v1H363z M360 193h1v1H360z M389 193h1v1H389z M151 194h1v1H151z M360 194h1v1H360z M87 195h1v1H87z M150 195h1v1H150z M361 195h1v1H361z M392 195h1v1H392z M393 196h1v1H393z M149 197h1v1H149z M362 197h1v1H362z M123 199h1v1H123z M148 199h1v1H148z M363 199h1v1H363z M87 200h1v1H87z M364 201h1v1H364z M146 203h1v1H146z M365 203h1v1H365z M145 205h1v1H145z M366 205h1v1H366z M399 206h1v1H399z M144 207h1v1H144z M367 207h1v1H367z M144 208h1v1H144z M368 209h1v1H368z M143 210h1v1H143z M368 210h1v1H368z M376 210h1v1H376z M108 212h1v1H108z M142 212h1v1H142z M369 212h1v1H369z M401 212h1v1H401z M84 213h1v1H84z M105 213h1v1H105z M142 213h1v1H142z M381 213h1v1H381z M141 214h1v1H141z M370 214h1v1H370z M383 214h1v1H383z M370 215h1v1H370z M407 215h1v1H407z M387 216h1v1H387z M371 217h1v1H371z M402 217h1v1H402z M421 217h1v1H421z M371 218h1v1H371z M372 220h1v1H372z M395 220h1v1H395z M139 221h1v1H139z M372 221h1v1H372z M396 221h1v1H396z M427 221h1v1H427z M139 222h1v1H139z M372 222h1v1H372z M390 222h1v1H390z M395 222h1v1H395z M394 223h1v1H394z M138 224h1v1H138z M373 224h1v1H373z M430 224h1v1H430z M110 225h1v1H110z M138 225h1v1H138z M373 225h1v1H373z M382 225h1v1H382z M431 225h1v1H431z M379 226h1v1H379z M392 226h1v1H392z M137 227h1v1H137z M374 227h1v1H374z M376 227h1v1H376z M137 228h1v1H137z M374 228h1v1H374z M83 229h1v1H83z M374 229h1v1H374z M390 229h1v1H390z M374 230h1v1H374z M389 231h1v1H389z M136 232h1v1H136z M375 232h1v1H375z M76 233h1v1H76z M136 233h1v1H136z M375 233h1v1H375z M375 234h1v1H375z M375 235h1v1H375z M135 237h1v1H135z M376 237h1v1H376z M109 238h1v1H109z M135 238h1v1H135z M376 238h1v1H376z M379 238h1v1H379z M135 239h1v1H135z M376 239h1v1H376z M387 239h1v1H387z M135 240h1v1H135z M376 240h1v1H376z M415 241h1v1H415z M98 242h1v1H98z M407 242h1v1H407z M75 243h1v1H75z M95 245h1v1H95z M105 245h1v1H105z M94 246h1v1H94z M134 246h1v1H134z M412 246h1v1H412z M134 247h1v1H134z M377 247h1v1H377z M387 247h1v1H387z M134 248h1v1H134z M377 248h1v1H377z M134 249h1v1H134z M377 249h1v1H377z M134 250h1v1H134z M377 250h1v1H377z M134 251h1v1H134z M377 251h1v1H377z M388 251h1v1H388z M98 252h1v1H98z M134 252h1v1H134z M377 252h1v1H377z M388 252h1v1H388z M134 253h1v1H134z M377 253h1v1H377z M134 254h1v1H134z M377 254h1v1H377z M134 255h1v1H134z M377 255h1v1H377z M440 255h1v1H440z M134 256h1v1H134z M377 256h1v1H377z M134 257h1v1H134z M377 257h1v1H377z M134 258h1v1H134z M377 258h1v1H377z M134 259h1v1H134z M377 259h1v1H377z M134 260h1v1H134z M377 260h1v1H377z M394 260h1v1H394z M134 261h1v1H134z M377 261h1v1H377z M134 262h1v1H134z M377 262h1v1H377z M134 263h1v1H134z M377 263h1v1H377z M134 264h1v1H134z M377 264h1v1H377z M402 265h1v1H402z M430 265h1v1H430z M384 267h1v1H384z M111 269h1v1H111z M135 269h1v1H135z M135 270h1v1H135z M376 270h1v1H376z M135 271h1v1H135z M376 271h1v1H376z M135 272h1v1H135z M376 272h1v1H376z M100 273h1v1H100z M135 273h1v1H135z M376 273h1v1H376z M75 275h1v1H75z M136 276h1v1H136z M375 276h1v1H375z M445 276h1v1H445z M117 277h1v1H117z M136 277h1v1H136z M375 277h1v1H375z M136 278h1v1H136z M375 278h1v1H375z M439 278h1v1H439z M136 279h1v1H136z M103 281h1v1H103z M137 281h1v1H137z M374 281h1v1H374z M137 282h1v1H137z M374 282h1v1H374z M104 283h1v1H104z M137 283h1v1H137z M374 283h1v1H374z M138 286h1v1H138z M373 286h1v1H373z M138 287h1v1H138z M373 287h1v1H373z M139 289h1v1H139z M372 289h1v1H372z M139 290h1v1H139z M372 290h1v1H372z M140 292h1v1H140z M140 293h1v1H140z M371 293h1v1H371z M141 295h1v1H141z M80 296h1v1H80z M141 296h1v1H141z M370 296h1v1H370z M142 298h1v1H142z M369 298h1v1H369z M142 299h1v1H142z M369 299h1v1H369z M84 300h1v1H84z M143 301h1v1H143z M368 301h1v1H368z M144 303h1v1H144z M367 303h1v1H367z M144 304h1v1H144z M367 304h1v1H367z M145 306h1v1H145z M366 306h1v1H366z M132 307h1v1H132z M146 308h1v1H146z M365 308h1v1H365z M377 308h1v1H377z M147 310h1v1H147z M364 310h1v1H364z M112 312h1v1H112z M148 312h1v1H148z M363 312h1v1H363z M149 314h1v1H149z M362 314h1v1H362z M361 315h1v1H361z M150 316h1v1H150z M374 316h1v1H374z M124 317h1v1H124z M151 317h1v1H151z M360 317h1v1H360z M152 319h1v1H152z M359 319h1v1H359z M153 320h1v1H153z M358 320h1v1H358z M153 321h1v1H153z M154 322h1v1H154z M357 322h1v1H357z M155 323h1v1H155z M155 324h1v1H155z M356 324h1v1H356z M156 325h1v1H156z M355 325h1v1H355z M157 326h1v1H157z M354 326h1v1H354z M158 328h1v1H158z M353 328h1v1H353z M159 329h1v1H159z M352 329h1v1H352z M160 330h1v1H160z M110 332h1v1H110z M350 332h1v1H350z M162 333h1v1H162z M349 333h1v1H349z M163 334h1v1H163z M348 334h1v1H348z M164 335h1v1H164z M347 335h1v1H347z M165 336h1v1H165z M166 337h1v1H166z M122 343h1v1H122z M174 345h1v1H174z M175 346h1v1H175z M336 346h1v1H336z M176 347h1v1H176z M335 347h1v1H335z M177 348h1v1H177z M334 348h1v1H334z M178 349h1v1H178z M333 349h1v1H333z M332 350h1v1H332z M330 351h1v1H330z M182 352h1v1H182z M329 352h1v1H329z M183 353h1v1H183z M328 353h1v1H328z M153 354h1v1H153z M326 354h1v1H326z M186 355h1v1H186z M325 355h1v1H325z M367 355h1v1H367z M187 356h1v1H187z M324 356h1v1H324z M189 357h1v1H189z M322 357h1v1H322z M190 358h1v1H190z M321 358h1v1H321z M192 359h1v1H192z M319 359h1v1H319z M193 360h2v1H193z M317 360h2v1H317z M195 361h1v1H195z M316 361h1v1H316z M184 362h2v1H184z M197 362h1v1H197z M314 362h1v1H314z M183 363h4v1H183z M199 363h1v1H199z M312 363h1v1H312z M324 363h1v1H324z M183 364h6v1H183z M201 364h1v1H201z M310 364h1v1H310z M323 364h2v1H323z M183 365h6v1H183z M203 365h1v1H203z M308 365h1v1H308z M321 365h4v1H321z M361 365h1v1H361z M183 366h5v1H183z M205 366h1v1H205z M306 366h1v1H306z M320 366h5v1H320z M345 366h1v1H345z M183 367h6v1H183z M207 367h1v1H207z M304 367h1v1H304z M319 367h7v1H319z M183 368h6v1H183z M209 368h2v1H209z M301 368h2v1H301z M317 368h9v1H317z M183 369h8v1H183z M212 369h1v1H212z M299 369h1v1H299z M315 369h11v1H315z M356 369h1v1H356z M183 370h10v1H183z M214 370h2v1H214z M296 370h2v1H296z M313 370h6v1H313z M321 370h5v1H321z M335 370h1v1H335z M184 371h17v1H184z M217 371h2v1H217z M293 371h2v1H293z M312 371h5v1H312z M323 371h3v1H323z M184 372h19v1H184z M221 372h2v1H221z M289 372h3v1H289z M309 372h1v1H309z M312 372h5v1H312z M185 373h18v1H185z M224 373h2v1H224z M286 373h2v1H286z M308 373h3v1H308z M313 373h5v1H313z M343 373h1v1H343z M186 374h16v1H186z M204 374h3v1H204z M228 374h2v1H228z M281 374h3v1H281z M305 374h2v1H305z M309 374h3v1H309z M314 374h6v1H314z M187 375h15v1H187z M203 375h6v1H203z M232 375h4v1H232z M276 375h3v1H276z M303 375h4v1H303z M309 375h15v1H309z M188 376h13v1H188z M202 376h8v1H202z M238 376h5v1H238z M269 376h5v1H269z M302 376h6v1H302z M309 376h17v1H309z M189 377h11v1H189z M201 377h8v1H201z M248 377h16v1H248z M302 377h6v1H302z M309 377h17v1H309z M191 378h18v1H191z M214 378h3v1H214z M295 378h1v1H295z M302 378h6v1H302z M309 378h17v1H309z M192 379h16v1H192z M214 379h5v1H214z M292 379h4v1H292z M302 379h6v1H302z M309 379h17v1H309z M194 380h13v1H194z M213 380h6v1H213z M221 380h1v1H221z M290 380h6v1H290z M302 380h11v1H302z M315 380h11v1H315z M196 381h11v1H196z M213 381h6v1H213z M220 381h2v1H220z M224 381h4v1H224z M284 381h3v1H284z M289 381h7v1H289z M302 381h11v1H302z M316 381h10v1H316z M198 382h8v1H198z M212 382h7v1H212z M220 382h3v1H220z M224 382h8v1H224z M280 382h7v1H280z M289 382h7v1H289z M302 382h11v1H302z M317 382h9v1H317z M200 383h6v1H200z M212 383h6v1H212z M219 383h4v1H219z M224 383h14v1H224z M274 383h13v1H274z M288 383h9v1H288z M301 383h12v1H301z M317 383h9v1H317z M202 384h4v1H202z M211 384h7v1H211z M219 384h4v1H219z M224 384h5v1H224z M230 384h8v1H230z M272 384h14v1H272z M288 384h9v1H288z M301 384h13v1H301z M317 384h9v1H317z M204 385h1v1H204z M210 385h13v1H210z M224 385h4v1H224z M232 385h5v1H232z M275 385h11v1H275z M287 385h10v1H287z M301 385h25v1H301z M209 386h8v1H209z M218 386h10v1H218z M233 386h4v1H233z M305 386h22v1H305z M208 387h21v1H208z M234 387h2v1H234z M311 387h16v1H311z M208 388h21v1H208z M234 388h2v1H234z M317 388h10v1H317z M209 389h11v1H209z M222 389h8v1H222z M321 389h5v1H321z M210 390h10v1H210z M222 390h9v1H222z M212 391h7v1H212z M222 391h10v1H222z M213 392h6v1H213z M222 392h11v1H222z M214 393h5v1H214z M223 393h10v1H223z M215 394h5v1H215z M223 394h10v1H223z M216 395h16v1H216z M217 396h14v1H217z M219 397h12v1H219z M220 398h10v1H220z M221 399h9v1H221z M222 400h7v1H222z M223 401h2v1H223z M226 401h3v1H226z M223 402h5v1H223z M226 403h1v1H226z"/>
  <path fill="#556729" d="M186 66h1v1H186z M184 68h1v1H184z M162 76h1v1H162z M177 76h1v1H177z M181 76h1v1H181z M180 77h1v1H180z M174 80h1v1H174z M163 81h1v1H163z M142 82h1v1H142z M152 84h1v1H152z M171 84h1v1H171z M170 85h1v1H170z M153 87h1v1H153z M164 87h1v1H164z M180 87h1v1H180z M175 88h1v1H175z M150 89h1v1H150z M138 91h1v1H138z M166 91h1v1H166z M165 93h1v1H165z M140 95h1v1H140z M164 95h1v1H164z M176 96h1v1H176z M189 98h1v1H189z M385 99h2v1H385z M379 100h14v1H379z M377 101h19v1H377z M171 102h1v1H171z M375 102h23v1H375z M373 103h27v1H373z M144 104h1v1H144z M372 104h29v1H372z M371 105h32v1H371z M190 106h1v1H190z M369 106h35v1H369z M339 107h7v1H339z M368 107h37v1H368z M116 108h1v1H116z M334 108h16v1H334z M367 108h39v1H367z M122 109h1v1H122z M331 109h23v1H331z M366 109h41v1H366z M156 110h1v1H156z M328 110h31v1H328z M366 110h41v1H366z M326 111h36v1H326z M365 111h43v1H365z M113 112h1v1H113z M147 112h1v1H147z M324 112h40v1H324z M365 112h44v1H365z M169 113h1v1H169z M322 113h87v1H322z M166 114h1v1H166z M321 114h72v1H321z M399 114h11v1H399z M112 115h1v1H112z M163 115h1v1H163z M319 115h9v1H319z M329 115h36v1H329z M366 115h26v1H366z M404 115h1v1H404z M161 116h1v1H161z M317 116h9v1H317z M328 116h37v1H328z M366 116h26v1H366z M316 117h9v1H316z M327 117h65v1H327z M315 118h8v1H315z M327 118h65v1H327z M149 119h1v1H149z M154 119h1v1H154z M314 119h7v1H314z M326 119h40v1H326z M367 119h26v1H367z M128 120h1v1H128z M312 120h8v1H312z M325 120h41v1H325z M368 120h27v1H368z M311 121h8v1H311z M324 121h41v1H324z M366 121h30v1H366z M310 122h7v1H310z M324 122h46v1H324z M371 122h27v1H371z M412 122h1v1H412z M150 123h1v1H150z M309 123h7v1H309z M323 123h41v1H323z M365 123h2v1H365z M368 123h33v1H368z M408 123h6v1H408z M308 124h7v1H308z M322 124h45v1H322z M368 124h5v1H368z M374 124h40v1H374z M307 125h7v1H307z M322 125h20v1H322z M344 125h70v1H344z M112 126h1v1H112z M306 126h7v1H306z M321 126h19v1H321z M345 126h17v1H345z M363 126h13v1H363z M377 126h37v1H377z M181 127h1v1H181z M187 127h1v1H187z M306 127h6v1H306z M321 127h17v1H321z M345 127h32v1H345z M378 127h36v1H378z M190 128h1v1H190z M305 128h6v1H305z M321 128h15v1H321z M344 128h17v1H344z M362 128h6v1H362z M369 128h10v1H369z M380 128h34v1H380z M304 129h6v1H304z M320 129h14v1H320z M344 129h16v1H344z M361 129h7v1H361z M369 129h45v1H369z M303 130h6v1H303z M320 130h11v1H320z M343 130h39v1H343z M383 130h32v1H383z M302 131h6v1H302z M319 131h9v1H319z M342 131h73v1H342z M149 132h1v1H149z M302 132h5v1H302z M319 132h7v1H319z M341 132h17v1H341z M359 132h10v1H359z M370 132h16v1H370z M387 132h28v1H387z M149 133h1v1H149z M301 133h6v1H301z M319 133h4v1H319z M340 133h17v1H340z M358 133h11v1H358z M370 133h45v1H370z M175 134h1v1H175z M300 134h6v1H300z M319 134h2v1H319z M338 134h31v1H338z M370 134h45v1H370z M299 135h6v1H299z M337 135h78v1H337z M117 136h1v1H117z M299 136h5v1H299z M335 136h59v1H335z M395 136h20v1H395z M118 137h1v1H118z M150 137h1v1H150z M298 137h6v1H298z M333 137h63v1H333z M397 137h18v1H397z M297 138h6v1H297z M330 138h23v1H330z M354 138h60v1H354z M145 139h1v1H145z M297 139h5v1H297z M327 139h25v1H327z M353 139h17v1H353z M371 139h30v1H371z M402 139h12v1H402z M296 140h6v1H296z M322 140h29v1H322z M352 140h18v1H352z M371 140h33v1H371z M406 140h8v1H406z M298 141h3v1H298z M317 141h91v1H317z M410 141h4v1H410z M133 142h1v1H133z M318 142h96v1H318z M154 143h1v1H154z M318 143h96v1H318z M155 144h1v1H155z M318 144h29v1H318z M348 144h66v1H348z M318 145h28v1H318z M347 145h24v1H347z M372 145h41v1H372z M318 146h27v1H318z M346 146h25v1H346z M372 146h15v1H372z M392 146h21v1H392z M318 147h26v1H318z M345 147h26v1H345z M372 147h15v1H372z M394 147h19v1H394z M318 148h25v1H318z M344 148h28v1H344z M373 148h14v1H373z M395 148h18v1H395z M160 149h1v1H160z M319 149h53v1H319z M373 149h14v1H373z M396 149h16v1H396z M319 150h68v1H319z M398 150h14v1H398z M180 151h1v1H180z M319 151h20v1H319z M340 151h48v1H340z M399 151h13v1H399z M320 152h18v1H320z M339 152h50v1H339z M401 152h10v1H401z M169 153h1v1H169z M174 153h1v1H174z M322 153h50v1H322z M373 153h17v1H373z M403 153h8v1H403z M323 154h12v1H323z M336 154h35v1H336z M373 154h18v1H373z M406 154h4v1H406z M325 155h47v1H325z M373 155h4v1H373z M378 155h15v1H378z M408 155h1v1H408z M326 156h6v1H326z M333 156h37v1H333z M371 156h1v1H371z M373 156h5v1H373z M379 156h15v1H379z M328 157h44v1H328z M373 157h23v1H373z M330 158h39v1H330z M370 158h29v1H370z M330 159h20v1H330z M355 159h46v1H355z M332 160h16v1H332z M355 160h13v1H355z M369 160h36v1H369z M333 161h14v1H333z M355 161h52v1H355z M334 162h12v1H334z M354 162h13v1H354z M368 162h15v1H368z M384 162h22v1H384z M335 163h9v1H335z M354 163h30v1H354z M385 163h21v1H385z M336 164h7v1H336z M353 164h32v1H353z M386 164h19v1H386z M145 165h1v1H145z M338 165h4v1H338z M353 165h12v1H353z M366 165h39v1H366z M339 166h2v1H339z M352 166h21v1H352z M374 166h30v1H374z M351 167h13v1H351z M365 167h8v1H365z M374 167h30v1H374z M350 168h23v1H350z M374 168h29v1H374z M349 169h24v1H349z M374 169h17v1H374z M392 169h11v1H392z M348 170h14v1H348z M363 170h10v1H363z M374 170h18v1H374z M393 170h9v1H393z M347 171h26v1H347z M374 171h28v1H374z M101 172h1v1H101z M346 172h27v1H346z M374 172h21v1H374z M396 172h5v1H396z M346 173h14v1H346z M361 173h12v1H361z M374 173h26v1H374z M347 174h12v1H347z M360 174h13v1H360z M374 174h25v1H374z M347 175h26v1H347z M374 175h10v1H374z M387 175h12v1H387z M348 176h25v1H348z M374 176h10v1H374z M387 176h12v1H387z M349 177h35v1H349z M387 177h11v1H387z M100 178h1v1H100z M350 178h6v1H350z M357 178h27v1H357z M387 178h10v1H387z M150 179h1v1H150z M351 179h4v1H351z M356 179h27v1H356z M388 179h9v1H388z M352 180h2v1H352z M355 180h28v1H355z M388 180h8v1H388z M126 181h1v1H126z M352 181h1v1H352z M354 181h29v1H354z M388 181h8v1H388z M353 182h11v1H353z M366 182h17v1H366z M389 182h6v1H389z M354 183h9v1H354z M366 183h17v1H366z M389 183h6v1H389z M355 184h8v1H355z M367 184h15v1H367z M389 184h5v1H389z M101 185h1v1H101z M355 185h7v1H355z M367 185h15v1H367z M389 185h4v1H389z M90 186h1v1H90z M110 186h1v1H110z M356 186h6v1H356z M367 186h15v1H367z M388 186h5v1H388z M357 187h5v1H357z M367 187h6v1H367z M374 187h8v1H374z M388 187h4v1H388z M357 188h5v1H357z M367 188h6v1H367z M374 188h8v1H374z M387 188h4v1H387z M91 189h1v1H91z M358 189h4v1H358z M367 189h6v1H367z M374 189h8v1H374z M386 189h5v1H386z M152 190h1v1H152z M359 190h4v1H359z M366 190h7v1H366z M374 190h9v1H374z M386 190h4v1H386z M149 191h1v1H149z M152 191h1v1H152z M359 191h4v1H359z M366 191h7v1H366z M374 191h15v1H374z M360 192h3v1H360z M365 192h8v1H365z M374 192h15v1H374z M151 193h1v1H151z M361 193h12v1H361z M374 193h15v1H374z M101 194h1v1H101z M361 194h12v1H361z M374 194h17v1H374z M103 195h1v1H103z M362 195h11v1H362z M374 195h18v1H374z M146 196h1v1H146z M148 196h1v1H148z M362 196h31v1H362z M109 197h2v1H109z M124 197h1v1H124z M363 197h32v1H363z M113 198h1v1H113z M148 198h1v1H148z M363 198h32v1H363z M364 199h32v1H364z M121 200h1v1H121z M364 200h33v1H364z M95 201h1v1H95z M365 201h32v1H365z M123 202h1v1H123z M146 202h1v1H146z M365 202h33v1H365z M118 203h1v1H118z M366 203h32v1H366z M145 204h1v1H145z M366 204h33v1H366z M367 205h32v1H367z M367 206h32v1H367z M85 207h1v1H85z M123 207h1v1H123z M135 207h1v1H135z M368 207h32v1H368z M368 208h32v1H368z M111 209h1v1H111z M143 209h1v1H143z M369 209h32v1H369z M110 210h1v1H110z M369 210h7v1H369z M377 210h24v1H377z M142 211h1v1H142z M369 211h32v1H369z M370 212h9v1H370z M380 212h21v1H380z M370 213h11v1H370z M382 213h20v1H382z M91 214h1v1H91z M107 214h1v1H107z M124 214h1v1H124z M371 214h12v1H371z M384 214h18v1H384z M371 215h14v1H371z M386 215h16v1H386z M408 215h7v1H408z M102 216h1v1H102z M140 216h1v1H140z M371 216h16v1H371z M388 216h14v1H388z M405 216h14v1H405z M372 217h18v1H372z M391 217h11v1H391z M403 217h18v1H403z M105 218h1v1H105z M125 218h1v1H125z M372 218h21v1H372z M394 218h29v1H394z M372 219h24v1H372z M399 219h26v1H399z M373 220h22v1H373z M396 220h1v1H396z M398 220h28v1H398z M95 221h1v1H95z M373 221h19v1H373z M393 221h3v1H393z M397 221h30v1H397z M373 222h17v1H373z M391 222h4v1H391z M396 222h33v1H396z M138 223h1v1H138z M373 223h14v1H373z M388 223h6v1H388z M395 223h35v1H395z M91 224h1v1H91z M374 224h56v1H374z M374 225h8v1H374z M383 225h48v1H383z M88 226h1v1H88z M101 226h1v1H101z M374 226h5v1H374z M380 226h12v1H380z M393 226h39v1H393z M86 227h1v1H86z M101 227h1v1H101z M375 227h1v1H375z M377 227h56v1H377z M375 228h59v1H375z M89 229h5v1H89z M100 229h1v1H100z M375 229h15v1H375z M391 229h43v1H391z M86 230h10v1H86z M375 230h60v1H375z M74 231h1v1H74z M84 231h14v1H84z M136 231h1v1H136z M375 231h14v1H375z M390 231h46v1H390z M78 232h1v1H78z M83 232h17v1H83z M128 232h1v1H128z M376 232h60v1H376z M82 233h19v1H82z M376 233h61v1H376z M74 234h1v1H74z M81 234h21v1H81z M376 234h3v1H376z M382 234h6v1H382z M389 234h37v1H389z M428 234h9v1H428z M80 235h22v1H80z M376 235h2v1H376z M381 235h44v1H381z M428 235h10v1H428z M71 236h1v1H71z M79 236h23v1H79z M117 236h1v1H117z M376 236h1v1H376z M381 236h43v1H381z M428 236h1v1H428z M430 236h8v1H430z M79 237h23v1H79z M380 237h43v1H380z M427 237h2v1H427z M430 237h9v1H430z M78 238h23v1H78z M380 238h42v1H380z M427 238h2v1H427z M430 238h9v1H430z M77 239h24v1H77z M379 239h8v1H379z M388 239h24v1H388z M414 239h7v1H414z M427 239h2v1H427z M430 239h10v1H430z M77 240h23v1H77z M379 240h8v1H379z M388 240h22v1H388z M415 240h7v1H415z M426 240h2v1H426z M430 240h10v1H430z M76 241h23v1H76z M378 241h9v1H378z M388 241h20v1H388z M416 241h6v1H416z M426 241h2v1H426z M430 241h10v1H430z M76 242h22v1H76z M378 242h9v1H378z M388 242h19v1H388z M416 242h7v1H416z M426 242h2v1H426z M430 242h10v1H430z M76 243h22v1H76z M378 243h9v1H378z M388 243h19v1H388z M418 243h5v1H418z M426 243h2v1H426z M430 243h11v1H430z M75 244h22v1H75z M106 244h2v1H106z M377 244h10v1H377z M388 244h19v1H388z M418 244h5v1H418z M426 244h1v1H426z M430 244h11v1H430z M75 245h20v1H75z M106 245h2v1H106z M377 245h10v1H377z M388 245h18v1H388z M419 245h5v1H419z M425 245h2v1H425z M429 245h12v1H429z M74 246h20v1H74z M105 246h3v1H105z M377 246h10v1H377z M388 246h18v1H388z M419 246h5v1H419z M425 246h2v1H425z M429 246h12v1H429z M74 247h19v1H74z M104 247h4v1H104z M378 247h9v1H378z M388 247h18v1H388z M416 247h1v1H416z M420 247h3v1H420z M425 247h2v1H425z M428 247h13v1H428z M74 248h18v1H74z M103 248h6v1H103z M378 248h28v1H378z M416 248h2v1H416z M421 248h2v1H421z M425 248h2v1H425z M428 248h13v1H428z M74 249h17v1H74z M102 249h7v1H102z M378 249h28v1H378z M417 249h1v1H417z M425 249h1v1H425z M433 249h8v1H433z M74 250h16v1H74z M101 250h8v1H101z M378 250h28v1H378z M417 250h2v1H417z M424 250h2v1H424z M434 250h7v1H434z M73 251h17v1H73z M100 251h9v1H100z M378 251h10v1H378z M389 251h17v1H389z M417 251h3v1H417z M424 251h2v1H424z M433 251h8v1H433z M73 252h17v1H73z M99 252h11v1H99z M378 252h10v1H378z M389 252h17v1H389z M418 252h2v1H418z M424 252h2v1H424z M432 252h2v1H432z M435 252h6v1H435z M73 253h19v1H73z M96 253h14v1H96z M378 253h28v1H378z M418 253h2v1H418z M424 253h2v1H424z M430 253h4v1H430z M436 253h5v1H436z M73 254h37v1H73z M379 254h27v1H379z M419 254h2v1H419z M424 254h1v1H424z M429 254h3v1H429z M436 254h5v1H436z M73 255h37v1H73z M381 255h8v1H381z M390 255h16v1H390z M419 255h2v1H419z M424 255h1v1H424z M428 255h3v1H428z M437 255h3v1H437z M74 256h37v1H74z M384 256h22v1H384z M408 256h1v1H408z M420 256h2v1H420z M423 256h2v1H423z M427 256h3v1H427z M437 256h3v1H437z M74 257h36v1H74z M112 257h22v1H112z M386 257h20v1H386z M420 257h2v1H420z M423 257h2v1H423z M427 257h2v1H427z M435 257h5v1H435z M74 258h60v1H74z M385 258h5v1H385z M391 258h15v1H391z M420 258h2v1H420z M423 258h2v1H423z M426 258h2v1H426z M433 258h6v1H433z M74 259h60v1H74z M385 259h4v1H385z M392 259h14v1H392z M421 259h6v1H421z M432 259h6v1H432z M75 260h37v1H75z M384 260h5v1H384z M395 260h10v1H395z M421 260h5v1H421z M431 260h7v1H431z M75 261h37v1H75z M383 261h5v1H383z M397 261h8v1H397z M421 261h5v1H421z M430 261h7v1H430z M442 261h1v1H442z M76 262h36v1H76z M383 262h5v1H383z M399 262h5v1H399z M422 262h3v1H422z M430 262h6v1H430z M76 263h37v1H76z M382 263h5v1H382z M402 263h2v1H402z M422 263h2v1H422z M429 263h5v1H429z M77 264h36v1H77z M382 264h4v1H382z M422 264h2v1H422z M429 264h4v1H429z M78 265h35v1H78z M134 265h1v1H134z M377 265h1v1H377z M381 265h5v1H381z M422 265h2v1H422z M429 265h1v1H429z M79 266h35v1H79z M381 266h4v1H381z M423 266h1v1H423z M81 267h33v1H81z M380 267h4v1H380z M81 268h32v1H81z M379 268h5v1H379z M80 269h5v1H80z M86 269h25v1H86z M379 269h4v1H379z M401 269h1v1H401z M79 270h6v1H79z M86 270h24v1H86z M378 270h5v1H378z M78 271h29v1H78z M378 271h4v1H378z M77 272h24v1H77z M114 272h1v1H114z M377 272h4v1H377z M77 273h23v1H77z M111 273h5v1H111z M377 273h3v1H377z M76 274h40v1H76z M376 274h3v1H376z M76 275h41v1H76z M376 275h3v1H376z M75 276h42v1H75z M376 276h2v1H376z M75 277h42v1H75z M74 278h44v1H74z M74 279h45v1H74z M375 279h1v1H375z M402 279h1v1H402z M73 280h46v1H73z M73 281h30v1H73z M104 281h16v1H104z M73 282h30v1H73z M104 282h16v1H104z M73 283h31v1H73z M105 283h16v1H105z M73 284h49v1H73z M374 284h1v1H374z M73 285h49v1H73z M375 285h1v1H375z M423 285h1v1H423z M73 286h46v1H73z M375 286h1v1H375z M443 286h1v1H443z M74 287h6v1H74z M82 287h36v1H82z M375 287h2v1H375z M74 288h5v1H74z M82 288h38v1H82z M375 288h2v1H375z M74 289h5v1H74z M82 289h44v1H82z M375 289h2v1H375z M408 289h1v1H408z M75 290h4v1H75z M82 290h45v1H82z M374 290h4v1H374z M75 291h4v1H75z M82 291h15v1H82z M99 291h28v1H99z M139 291h1v1H139z M372 291h1v1H372z M374 291h4v1H374z M76 292h3v1H76z M82 292h15v1H82z M99 292h29v1H99z M374 292h4v1H374z M76 293h2v1H76z M81 293h15v1H81z M100 293h29v1H100z M374 293h4v1H374z M77 294h1v1H77z M81 294h15v1H81z M100 294h16v1H100z M117 294h13v1H117z M140 294h1v1H140z M371 294h1v1H371z M374 294h4v1H374z M81 295h15v1H81z M100 295h16v1H100z M119 295h7v1H119z M127 295h4v1H127z M374 295h4v1H374z M81 296h15v1H81z M101 296h15v1H101z M120 296h9v1H120z M130 296h1v1H130z M374 296h4v1H374z M80 297h16v1H80z M101 297h16v1H101z M121 297h10v1H121z M141 297h1v1H141z M370 297h1v1H370z M374 297h4v1H374z M81 298h16v1H81z M101 298h18v1H101z M122 298h8v1H122z M372 298h1v1H372z M374 298h4v1H374z M405 298h1v1H405z M82 299h15v1H82z M101 299h19v1H101z M123 299h4v1H123z M372 299h1v1H372z M374 299h4v1H374z M85 300h12v1H85z M101 300h19v1H101z M369 300h1v1H369z M372 300h1v1H372z M374 300h4v1H374z M87 301h10v1H87z M102 301h14v1H102z M371 301h7v1H371z M91 302h6v1H91z M102 302h7v1H102z M143 302h1v1H143z M368 302h1v1H368z M371 302h7v1H371z M394 302h1v1H394z M108 303h1v1H108z M371 303h7v1H371z M94 304h1v1H94z M109 304h1v1H109z M370 304h8v1H370z M370 305h8v1H370z M105 306h1v1H105z M107 306h1v1H107z M370 306h8v1H370z M366 307h1v1H366z M369 307h9v1H369z M102 308h1v1H102z M369 308h8v1H369z M382 308h1v1H382z M389 308h1v1H389z M93 309h1v1H93z M365 309h1v1H365z M369 309h8v1H369z M368 310h9v1H368z M94 311h1v1H94z M109 311h1v1H109z M364 311h1v1H364z M368 311h9v1H368z M367 312h8v1H367z M380 312h1v1H380z M363 313h1v1H363z M367 313h5v1H367z M375 313h1v1H375z M117 314h1v1H117z M372 314h4v1H372z M120 315h1v1H120z M123 315h1v1H123z M370 315h5v1H370z M361 316h1v1H361z M368 316h6v1H368z M100 317h1v1H100z M127 317h2v1H127z M366 317h8v1H366z M151 318h1v1H151z M360 318h1v1H360z M365 318h8v1H365z M364 319h8v1H364z M118 320h1v1H118z M363 320h8v1H363z M358 321h1v1H358z M363 321h8v1H363z M362 322h8v1H362z M357 323h1v1H357z M362 323h7v1H362z M361 324h8v1H361z M361 325h7v1H361z M129 326h1v1H129z M360 326h7v1H360z M157 327h1v1H157z M354 327h1v1H354z M360 327h6v1H360z M359 328h7v1H359z M358 329h7v1H358z M127 330h1v1H127z M359 330h5v1H359z M121 331h1v1H121z M145 331h1v1H145z M351 331h1v1H351z M144 332h1v1H144z M161 332h1v1H161z M356 332h8v1H356z M111 333h1v1H111z M356 333h8v1H356z M123 334h1v1H123z M355 334h10v1H355z M354 335h11v1H354z M139 336h1v1H139z M354 336h12v1H354z M346 337h1v1H346z M353 337h13v1H353z M166 338h1v1H166z M345 338h1v1H345z M352 338h15v1H352z M167 339h1v1H167z M344 339h1v1H344z M351 339h16v1H351z M168 340h1v1H168z M343 340h1v1H343z M350 340h17v1H350z M133 341h1v1H133z M169 341h1v1H169z M342 341h1v1H342z M350 341h18v1H350z M170 342h1v1H170z M341 342h1v1H341z M349 342h19v1H349z M171 343h1v1H171z M340 343h1v1H340z M348 343h20v1H348z M172 344h1v1H172z M339 344h1v1H339z M347 344h21v1H347z M173 345h1v1H173z M338 345h1v1H338z M346 345h22v1H346z M126 346h1v1H126z M337 346h1v1H337z M345 346h23v1H345z M344 347h25v1H344z M343 348h26v1H343z M342 349h26v1H342z M179 350h1v1H179z M341 350h27v1H341z M180 351h1v1H180z M331 351h1v1H331z M340 351h28v1H340z M339 352h29v1H339z M338 353h30v1H338z M184 354h1v1H184z M327 354h1v1H327z M337 354h31v1H337z M336 355h11v1H336z M348 355h19v1H348z M335 356h9v1H335z M350 356h17v1H350z M186 357h3v1H186z M323 357h2v1H323z M334 357h9v1H334z M350 357h17v1H350z M186 358h4v1H186z M322 358h3v1H322z M333 358h8v1H333z M350 358h16v1H350z M185 359h7v1H185z M320 359h5v1H320z M331 359h9v1H331z M350 359h16v1H350z M184 360h9v1H184z M319 360h6v1H319z M330 360h9v1H330z M350 360h15v1H350z M167 361h1v1H167z M184 361h11v1H184z M317 361h5v1H317z M323 361h2v1H323z M329 361h10v1H329z M349 361h16v1H349z M183 362h1v1H183z M186 362h6v1H186z M315 362h2v1H315z M320 362h6v1H320z M327 362h11v1H327z M349 362h15v1H349z M187 363h4v1H187z M313 363h1v1H313z M315 363h9v1H315z M325 363h13v1H325z M348 363h15v1H348z M189 364h1v1H189z M311 364h12v1H311z M325 364h12v1H325z M347 364h15v1H347z M201 365h2v1H201z M309 365h12v1H309z M325 365h12v1H325z M346 365h15v1H346z M182 366h1v1H182z M188 366h1v1H188z M201 366h4v1H201z M307 366h13v1H307z M325 366h11v1H325z M346 366h14v1H346z M182 367h1v1H182z M201 367h6v1H201z M307 367h12v1H307z M326 367h10v1H326z M345 367h14v1H345z M189 368h1v1H189z M200 368h8v1H200z M303 368h2v1H303z M308 368h9v1H308z M326 368h10v1H326z M345 368h13v1H345z M199 369h8v1H199z M209 369h3v1H209z M300 369h6v1H300z M307 369h1v1H307z M309 369h6v1H309z M326 369h10v1H326z M344 369h12v1H344z M193 370h1v1H193z M198 370h8v1H198z M208 370h6v1H208z M298 370h8v1H298z M307 370h2v1H307z M310 370h3v1H310z M319 370h2v1H319z M326 370h9v1H326z M344 370h11v1H344z M183 371h1v1H183z M201 371h5v1H201z M207 371h10v1H207z M295 371h11v1H295z M308 371h2v1H308z M311 371h1v1H311z M317 371h1v1H317z M326 371h9v1H326z M344 371h9v1H344z M203 372h2v1H203z M206 372h15v1H206z M292 372h7v1H292z M300 372h7v1H300z M308 372h1v1H308z M310 372h1v1H310z M317 372h1v1H317z M325 372h1v1H325z M328 372h7v1H328z M344 372h6v1H344z M203 373h1v1H203z M205 373h15v1H205z M221 373h3v1H221z M288 373h2v1H288z M291 373h7v1H291z M301 373h6v1H301z M311 373h1v1H311z M332 373h3v1H332z M344 373h2v1H344z M202 374h1v1H202z M207 374h14v1H207z M222 374h3v1H222z M227 374h1v1H227z M284 374h6v1H284z M291 374h6v1H291z M301 374h4v1H301z M308 374h1v1H308z M312 374h2v1H312z M209 375h12v1H209z M222 375h5v1H222z M229 375h3v1H229z M279 375h1v1H279z M283 375h6v1H283z M290 375h7v1H290z M301 375h2v1H301z M307 375h2v1H307z M210 376h1v1H210z M214 376h6v1H214z M222 376h7v1H222z M232 376h6v1H232z M282 376h7v1H282z M290 376h7v1H290z M308 376h1v1H308z M200 377h1v1H200z M209 377h1v1H209z M214 377h6v1H214z M223 377h9v1H223z M234 377h7v1H234z M247 377h1v1H247z M264 377h8v1H264z M281 377h8v1H281z M290 377h7v1H290z M308 377h1v1H308z M217 378h3v1H217z M221 378h1v1H221z M223 378h11v1H223z M238 378h3v1H238z M266 378h7v1H266z M279 378h10v1H279z M290 378h5v1H290z M296 378h1v1H296z M213 379h1v1H213z M219 379h1v1H219z M221 379h1v1H221z M223 379h15v1H223z M267 379h21v1H267z M289 379h3v1H289z M296 379h1v1H296z M308 379h1v1H308z M207 380h1v1H207z M220 380h1v1H220z M223 380h17v1H223z M267 380h21v1H267z M289 380h1v1H289z M296 380h1v1H296z M222 381h2v1H222z M228 381h12v1H228z M268 381h16v1H268z M287 381h1v1H287z M296 381h1v1H296z M206 382h1v1H206z M219 382h1v1H219z M223 382h1v1H223z M232 382h7v1H232z M269 382h11v1H269z M287 382h2v1H287z M296 382h1v1H296z M301 382h1v1H301z M211 383h1v1H211z M218 383h1v1H218z M238 383h1v1H238z M270 383h4v1H270z M218 384h1v1H218z M229 384h1v1H229z M271 384h1v1H271z M286 384h2v1H286z M223 385h1v1H223z M237 385h1v1H237z M273 385h2v1H273z M217 386h1v1H217z M279 386h5v1H279z M233 387h1v1H233z M236 387h1v1H236z M235 389h1v1H235z"/>
  <path fill="#3c4819" d="M179 65h7v1H179z M175 66h11v1H175z M172 67h15v1H172z M169 68h15v1H169z M185 68h3v1H185z M167 69h5v1H167z M176 69h12v1H176z M164 70h7v1H164z M176 70h12v1H176z M162 71h8v1H162z M176 71h12v1H176z M160 72h1v1H160z M162 72h7v1H162z M175 72h13v1H175z M158 73h10v1H158z M175 73h13v1H175z M156 74h12v1H156z M174 74h14v1H174z M154 75h14v1H154z M174 75h14v1H174z M152 76h10v1H152z M163 76h5v1H163z M173 76h4v1H173z M178 76h3v1H178z M184 76h4v1H184z M151 77h17v1H151z M172 77h8v1H172z M184 77h4v1H184z M151 78h18v1H151z M171 78h9v1H171z M184 78h4v1H184z M151 79h29v1H151z M184 79h4v1H184z M145 80h2v1H145z M151 80h23v1H151z M175 80h5v1H175z M183 80h5v1H183z M144 81h3v1H144z M152 81h11v1H152z M164 81h16v1H164z M182 81h6v1H182z M143 82h5v1H143z M152 82h11v1H152z M164 82h24v1H164z M141 83h7v1H141z M152 83h36v1H152z M140 84h8v1H140z M153 84h18v1H153z M172 84h16v1H172z M138 85h11v1H138z M153 85h17v1H153z M171 85h17v1H171z M137 86h12v1H137z M153 86h33v1H153z M136 87h14v1H136z M154 87h10v1H154z M165 87h14v1H165z M181 87h7v1H181z M134 88h16v1H134z M154 88h10v1H154z M165 88h10v1H165z M176 88h13v1H176z M133 89h17v1H133z M155 89h34v1H155z M132 90h19v1H132z M156 90h33v1H156z M131 91h7v1H131z M139 91h13v1H139z M156 91h10v1H156z M167 91h22v1H167z M129 92h24v1H129z M157 92h8v1H157z M167 92h22v1H167z M128 93h26v1H128z M158 93h7v1H158z M166 93h23v1H166z M127 94h28v1H127z M158 94h31v1H158z M126 95h14v1H126z M141 95h23v1H141z M165 95h17v1H165z M125 96h51v1H125z M124 97h50v1H124z M123 98h39v1H123z M163 98h9v1H163z M122 99h49v1H122z M184 99h6v1H184z M121 100h49v1H121z M181 100h9v1H181z M120 101h50v1H120z M178 101h12v1H178z M120 102h51v1H120z M174 102h16v1H174z M121 103h69v1H121z M121 104h23v1H121z M145 104h45v1H145z M121 105h69v1H121z M121 106h24v1H121z M146 106h44v1H146z M122 107h69v1H122z M115 108h1v1H115z M122 108h35v1H122z M158 108h33v1H158z M115 109h2v1H115z M123 109h68v1H123z M114 110h4v1H114z M123 110h33v1H123z M157 110h24v1H157z M183 110h8v1H183z M114 111h4v1H114z M123 111h53v1H123z M177 111h14v1H177z M114 112h5v1H114z M124 112h23v1H124z M148 112h24v1H148z M173 112h18v1H173z M113 113h6v1H113z M125 113h44v1H125z M170 113h21v1H170z M113 114h7v1H113z M126 114h40v1H126z M167 114h24v1H167z M113 115h8v1H113z M127 115h21v1H127z M149 115h5v1H149z M155 115h8v1H155z M164 115h27v1H164z M112 116h10v1H112z M128 116h33v1H128z M162 116h29v1H162z M112 117h11v1H112z M129 117h62v1H129z M112 118h12v1H112z M131 118h22v1H131z M154 118h37v1H154z M112 119h14v1H112z M132 119h17v1H132z M150 119h3v1H150z M155 119h36v1H155z M112 120h16v1H112z M131 120h60v1H131z M112 121h40v1H112z M153 121h38v1H153z M112 122h79v1H112z M112 123h38v1H112z M151 123h40v1H151z M112 124h38v1H112z M152 124h39v1H152z M112 125h79v1H112z M113 126h78v1H113z M113 127h68v1H113z M188 127h3v1H188z M113 128h37v1H113z M151 128h28v1H151z M113 129h64v1H113z M114 130h62v1H114z M114 131h61v1H114z M115 132h34v1H115z M150 132h25v1H150z M115 133h34v1H115z M150 133h25v1H150z M116 134h59v1H116z M116 135h61v1H116z M118 136h60v1H118z M119 137h30v1H119z M151 137h28v1H151z M120 138h29v1H120z M151 138h31v1H151z M121 139h24v1H121z M146 139h3v1H146z M152 139h37v1H152z M123 140h21v1H123z M146 140h3v1H146z M152 140h37v1H152z M126 141h14v1H126z M146 141h3v1H146z M153 141h36v1H153z M132 142h1v1H132z M146 142h3v1H146z M154 142h34v1H154z M145 143h4v1H145z M155 143h33v1H155z M145 144h4v1H145z M156 144h31v1H156z M145 145h4v1H145z M156 145h31v1H156z M145 146h3v1H145z M157 146h29v1H157z M145 147h3v1H145z M158 147h27v1H158z M145 148h3v1H145z M159 148h25v1H159z M145 149h3v1H145z M161 149h22v1H161z M145 150h3v1H145z M162 150h20v1H162z M145 151h3v1H145z M163 151h17v1H163z M145 152h3v1H145z M166 152h12v1H166z M145 153h3v1H145z M170 153h4v1H170z M145 154h3v1H145z M145 155h3v1H145z M145 156h3v1H145z M145 157h3v1H145z M145 158h3v1H145z M145 159h3v1H145z M145 160h3v1H145z M145 161h3v1H145z M145 162h3v1H145z M145 163h4v1H145z M145 164h4v1H145z M146 165h3v1H146z M146 166h3v1H146z M146 167h3v1H146z M146 168h3v1H146z M146 169h3v1H146z M146 170h3v1H146z M104 171h10v1H104z M146 171h3v1H146z M102 172h14v1H102z M146 172h3v1H146z M100 173h18v1H100z M146 173h4v1H146z M98 174h22v1H98z M146 174h4v1H146z M97 175h24v1H97z M147 175h3v1H147z M97 176h25v1H97z M147 176h3v1H147z M98 177h25v1H98z M147 177h3v1H147z M101 178h23v1H101z M147 178h3v1H147z M103 179h22v1H103z M147 179h3v1H147z M104 180h22v1H104z M147 180h4v1H147z M93 181h2v1H93z M106 181h20v1H106z M147 181h4v1H147z M92 182h5v1H92z M108 182h19v1H108z M148 182h3v1H148z M92 183h6v1H92z M109 183h19v1H109z M148 183h3v1H148z M91 184h9v1H91z M110 184h18v1H110z M148 184h3v1H148z M91 185h10v1H91z M110 185h18v1H110z M148 185h4v1H148z M91 186h13v1H91z M111 186h18v1H111z M148 186h4v1H148z M90 187h39v1H90z M149 187h3v1H149z M90 188h39v1H90z M149 188h3v1H149z M89 189h2v1H89z M92 189h37v1H92z M149 189h3v1H149z M89 190h4v1H89z M94 190h35v1H94z M149 190h3v1H149z M89 191h6v1H89z M96 191h33v1H96z M150 191h2v1H150z M88 192h49v1H88z M150 192h2v1H150z M88 193h11v1H88z M100 193h40v1H100z M150 193h1v1H150z M88 194h13v1H88z M102 194h39v1H102z M150 194h1v1H150z M88 195h15v1H88z M104 195h39v1H104z M87 196h59v1H87z M147 196h1v1H147z M87 197h22v1H87z M111 197h13v1H111z M125 197h24v1H125z M87 198h26v1H87z M114 198h9v1H114z M124 198h24v1H124z M87 199h36v1H87z M124 199h24v1H124z M88 200h33v1H88z M122 200h1v1H122z M124 200h23v1H124z M96 201h27v1H96z M124 201h23v1H124z M102 202h21v1H102z M124 202h22v1H124z M104 203h14v1H104z M119 203h27v1H119z M104 204h41v1H104z M86 205h2v1H86z M102 205h35v1H102z M139 205h6v1H139z M86 206h7v1H86z M100 206h36v1H100z M139 206h6v1H139z M86 207h37v1H86z M124 207h11v1H124z M139 207h5v1H139z M85 208h38v1H85z M124 208h11v1H124z M140 208h4v1H140z M85 209h26v1H85z M112 209h11v1H112z M124 209h11v1H124z M140 209h3v1H140z M85 210h25v1H85z M111 210h24v1H111z M140 210h3v1H140z M85 211h50v1H85z M140 211h2v1H140z M84 212h24v1H84z M109 212h26v1H109z M141 212h1v1H141z M85 213h20v1H85z M108 213h27v1H108z M141 213h1v1H141z M84 214h7v1H84z M99 214h8v1H99z M108 214h16v1H108z M125 214h10v1H125z M84 215h40v1H84z M125 215h11v1H125z M83 216h19v1H83z M103 216h33v1H103z M83 217h31v1H83z M115 217h22v1H115z M83 218h22v1H83z M106 218h7v1H106z M115 218h10v1H115z M126 218h11v1H126z M82 219h30v1H82z M115 219h10v1H115z M126 219h12v1H126z M139 219h1v1H139z M86 220h26v1H86z M115 220h24v1H115z M87 221h8v1H87z M96 221h15v1H96z M115 221h24v1H115z M86 222h25v1H86z M115 222h11v1H115z M127 222h12v1H127z M81 223h30v1H81z M115 223h23v1H115z M80 224h11v1H80z M92 224h10v1H92z M103 224h8v1H103z M115 224h23v1H115z M79 225h31v1H79z M115 225h23v1H115z M79 226h9v1H79z M89 226h12v1H89z M102 226h8v1H102z M115 226h23v1H115z M78 227h8v1H78z M87 227h14v1H87z M102 227h8v1H102z M115 227h22v1H115z M77 228h33v1H77z M115 228h20v1H115z M76 229h7v1H76z M84 229h5v1H84z M94 229h6v1H94z M101 229h9v1H101z M115 229h19v1H115z M75 230h11v1H75z M96 230h14v1H96z M115 230h17v1H115z M75 231h9v1H75z M98 231h12v1H98z M115 231h14v1H115z M130 231h1v1H130z M73 232h5v1H73z M79 232h4v1H79z M100 232h10v1H100z M115 232h13v1H115z M72 233h4v1H72z M77 233h5v1H77z M101 233h9v1H101z M115 233h11v1H115z M71 234h3v1H71z M75 234h6v1H75z M102 234h8v1H102z M115 234h9v1H115z M426 234h2v1H426z M70 235h10v1H70z M102 235h8v1H102z M115 235h6v1H115z M425 235h3v1H425z M72 236h7v1H72z M102 236h8v1H102z M115 236h2v1H115z M424 236h4v1H424z M429 236h1v1H429z M71 237h8v1H71z M102 237h8v1H102z M423 237h4v1H423z M429 237h1v1H429z M71 238h7v1H71z M101 238h8v1H101z M422 238h5v1H422z M429 238h1v1H429z M101 239h3v1H101z M421 239h6v1H421z M429 239h1v1H429z M378 240h1v1H378z M422 240h4v1H422z M428 240h2v1H428z M422 241h4v1H422z M428 241h2v1H428z M423 242h3v1H423z M428 242h2v1H428z M415 243h3v1H415z M423 243h3v1H423z M428 243h2v1H428z M414 244h4v1H414z M423 244h3v1H423z M427 244h3v1H427z M413 245h6v1H413z M424 245h1v1H424z M427 245h2v1H427z M413 246h6v1H413z M424 246h1v1H424z M427 246h2v1H427z M412 247h4v1H412z M417 247h3v1H417z M423 247h2v1H423z M427 247h1v1H427z M411 248h5v1H411z M418 248h3v1H418z M423 248h2v1H423z M427 248h1v1H427z M410 249h7v1H410z M418 249h7v1H418z M426 249h7v1H426z M410 250h7v1H410z M419 250h5v1H419z M426 250h8v1H426z M409 251h8v1H409z M420 251h4v1H420z M426 251h7v1H426z M409 252h9v1H409z M420 252h4v1H420z M426 252h6v1H426z M434 252h1v1H434z M411 253h7v1H411z M420 253h4v1H420z M426 253h4v1H426z M434 253h2v1H434z M412 254h7v1H412z M421 254h3v1H421z M425 254h4v1H425z M432 254h4v1H432z M413 255h6v1H413z M421 255h3v1H421z M425 255h3v1H425z M431 255h6v1H431z M406 256h2v1H406z M413 256h7v1H413z M422 256h1v1H422z M425 256h2v1H425z M430 256h7v1H430z M406 257h4v1H406z M414 257h6v1H414z M422 257h1v1H422z M425 257h2v1H425z M429 257h6v1H429z M406 258h5v1H406z M415 258h5v1H415z M422 258h1v1H422z M425 258h1v1H425z M428 258h5v1H428z M406 259h6v1H406z M416 259h5v1H416z M427 259h5v1H427z M439 259h2v1H439z M405 260h8v1H405z M417 260h4v1H417z M426 260h5v1H426z M438 260h4v1H438z M405 261h9v1H405z M417 261h4v1H417z M426 261h4v1H426z M437 261h5v1H437z M404 262h11v1H404z M418 262h4v1H418z M425 262h5v1H425z M436 262h7v1H436z M404 263h12v1H404z M418 263h4v1H418z M424 263h5v1H424z M434 263h10v1H434z M403 264h14v1H403z M418 264h4v1H418z M424 264h5v1H424z M433 264h11v1H433z M403 265h19v1H403z M424 265h5v1H424z M432 265h13v1H432z M402 266h21v1H402z M424 266h21v1H424z M402 267h44v1H402z M402 268h44v1H402z M402 269h45v1H402z M401 270h46v1H401z M377 271h1v1H377z M401 271h46v1H401z M401 272h46v1H401z M401 273h42v1H401z M135 274h1v1H135z M379 274h1v1H379z M401 274h39v1H401z M401 275h37v1H401z M407 276h30v1H407z M446 276h2v1H446z M376 277h1v1H376z M409 277h27v1H409z M443 277h5v1H443z M376 278h1v1H376z M410 278h12v1H410z M423 278h13v1H423z M440 278h8v1H440z M411 279h37v1H411z M402 280h5v1H402z M412 280h36v1H412z M375 281h1v1H375z M402 281h7v1H402z M412 281h35v1H412z M375 282h1v1H375z M403 282h8v1H403z M412 282h35v1H412z M375 283h1v1H375z M403 283h43v1H403z M375 284h1v1H375z M404 284h42v1H404z M374 285h1v1H374z M376 285h1v1H376z M404 285h19v1H404z M424 285h21v1H424z M374 286h1v1H374z M376 286h1v1H376z M405 286h18v1H405z M424 286h19v1H424z M135 287h3v1H135z M374 287h1v1H374z M406 287h16v1H406z M426 287h16v1H426z M131 288h8v1H131z M373 288h2v1H373z M407 288h13v1H407z M428 288h12v1H428z M129 289h6v1H129z M136 289h3v1H136z M373 289h2v1H373z M377 289h1v1H377z M409 289h9v1H409z M127 290h8v1H127z M136 290h3v1H136z M373 290h1v1H373z M410 290h5v1H410z M127 291h12v1H127z M373 291h1v1H373z M409 291h4v1H409z M128 292h8v1H128z M137 292h3v1H137z M408 292h4v1H408z M129 293h7v1H129z M137 293h3v1H137z M407 293h4v1H407z M130 294h10v1H130z M406 294h4v1H406z M116 295h3v1H116z M126 295h1v1H126z M131 295h6v1H131z M138 295h3v1H138z M371 295h1v1H371z M404 295h5v1H404z M116 296h4v1H116z M129 296h1v1H129z M131 296h10v1H131z M371 296h2v1H371z M403 296h5v1H403z M117 297h4v1H117z M131 297h7v1H131z M139 297h2v1H139z M371 297h2v1H371z M378 297h1v1H378z M402 297h5v1H402z M119 298h3v1H119z M130 298h8v1H130z M139 298h3v1H139z M370 298h2v1H370z M378 298h1v1H378z M400 298h5v1H400z M120 299h3v1H120z M128 299h11v1H128z M140 299h2v1H140z M370 299h2v1H370z M373 299h1v1H373z M378 299h1v1H378z M399 299h5v1H399z M100 300h1v1H100z M120 300h3v1H120z M129 300h10v1H129z M140 300h3v1H140z M370 300h2v1H370z M373 300h1v1H373z M398 300h5v1H398z M97 301h5v1H97z M116 301h8v1H116z M129 301h11v1H129z M141 301h2v1H141z M369 301h2v1H369z M396 301h5v1H396z M97 302h5v1H97z M109 302h15v1H109z M130 302h11v1H130z M142 302h1v1H142z M369 302h2v1H369z M395 302h5v1H395z M93 303h11v1H93z M109 303h16v1H109z M131 303h10v1H131z M142 303h2v1H142z M368 303h3v1H368z M393 303h5v1H393z M92 304h2v1H92z M95 304h9v1H95z M110 304h15v1H110z M131 304h11v1H131z M143 304h1v1H143z M368 304h2v1H368z M391 304h6v1H391z M92 305h12v1H92z M110 305h16v1H110z M132 305h10v1H132z M144 305h1v1H144z M367 305h3v1H367z M389 305h6v1H389z M92 306h13v1H92z M108 306h18v1H108z M132 306h11v1H132z M367 306h3v1H367z M387 306h6v1H387z M93 307h34v1H93z M133 307h10v1H133z M145 307h1v1H145z M367 307h2v1H367z M385 307h6v1H385z M93 308h9v1H93z M103 308h25v1H103z M133 308h11v1H133z M366 308h3v1H366z M383 308h6v1H383z M94 309h35v1H94z M132 309h13v1H132z M146 309h1v1H146z M366 309h3v1H366z M380 309h7v1H380z M94 310h13v1H94z M108 310h37v1H108z M365 310h3v1H365z M378 310h7v1H378z M95 311h14v1H95z M110 311h36v1H110z M147 311h1v1H147z M365 311h3v1H365z M377 311h6v1H377z M95 312h17v1H95z M113 312h34v1H113z M364 312h3v1H364z M375 312h5v1H375z M95 313h4v1H95z M105 313h42v1H105z M364 313h3v1H364z M372 313h3v1H372z M376 313h2v1H376z M96 314h3v1H96z M108 314h9v1H108z M118 314h30v1H118z M363 314h9v1H363z M97 315h2v1H97z M110 315h10v1H110z M121 315h2v1H121z M124 315h25v1H124z M362 315h8v1H362z M97 316h3v1H97z M111 316h13v1H111z M125 316h25v1H125z M362 316h6v1H362z M98 317h2v1H98z M110 317h14v1H110z M125 317h2v1H125z M129 317h22v1H129z M361 317h5v1H361z M99 318h3v1H99z M109 318h13v1H109z M123 318h9v1H123z M133 318h18v1H133z M361 318h4v1H361z M100 319h5v1H100z M107 319h30v1H107z M138 319h14v1H138z M360 319h4v1H360z M100 320h18v1H100z M119 320h23v1H119z M145 320h4v1H145z M152 320h1v1H152z M359 320h4v1H359z M101 321h47v1H101z M359 321h4v1H359z M102 322h51v1H102z M358 322h4v1H358z M103 323h52v1H103z M358 323h4v1H358z M104 324h24v1H104z M129 324h26v1H129z M357 324h4v1H357z M104 325h23v1H104z M130 325h23v1H130z M356 325h5v1H356z M105 326h21v1H105z M130 326h22v1H130z M155 326h2v1H155z M355 326h5v1H355z M106 327h19v1H106z M129 327h22v1H129z M153 327h4v1H153z M355 327h5v1H355z M366 327h1v1H366z M107 328h18v1H107z M129 328h20v1H129z M151 328h7v1H151z M354 328h5v1H354z M108 329h16v1H108z M128 329h20v1H128z M149 329h10v1H149z M355 329h3v1H355z M109 330h14v1H109z M128 330h32v1H128z M357 330h2v1H357z M110 331h11v1H110z M127 331h18v1H127z M146 331h15v1H146z M352 331h1v1H352z M355 331h3v1H355z M111 332h9v1H111z M126 332h18v1H126z M145 332h16v1H145z M354 332h2v1H354z M112 333h6v1H112z M125 333h37v1H125z M352 333h4v1H352z M112 334h4v1H112z M124 334h39v1H124z M351 334h4v1H351z M113 335h1v1H113z M122 335h42v1H122z M349 335h5v1H349z M121 336h18v1H121z M140 336h25v1H140z M347 336h7v1H347z M119 337h47v1H119z M347 337h6v1H347z M118 338h48v1H118z M346 338h6v1H346z M118 339h49v1H118z M345 339h6v1H345z M119 340h49v1H119z M344 340h6v1H344z M120 341h13v1H120z M134 341h35v1H134z M343 341h7v1H343z M121 342h39v1H121z M162 342h8v1H162z M342 342h7v1H342z M123 343h37v1H123z M163 343h8v1H163z M341 343h7v1H341z M124 344h35v1H124z M163 344h9v1H163z M340 344h7v1H340z M125 345h34v1H125z M163 345h10v1H163z M339 345h7v1H339z M127 346h32v1H127z M163 346h12v1H163z M338 346h7v1H338z M128 347h30v1H128z M162 347h14v1H162z M336 347h8v1H336z M129 348h29v1H129z M162 348h15v1H162z M335 348h8v1H335z M131 349h27v1H131z M162 349h16v1H162z M334 349h8v1H334z M132 350h25v1H132z M162 350h17v1H162z M333 350h8v1H333z M133 351h23v1H133z M161 351h19v1H161z M332 351h8v1H332z M135 352h20v1H135z M161 352h19v1H161z M330 352h9v1H330z M136 353h19v1H136z M160 353h19v1H160z M329 353h9v1H329z M138 354h15v1H138z M159 354h19v1H159z M328 354h9v1H328z M140 355h12v1H140z M159 355h18v1H159z M326 355h10v1H326z M347 355h1v1H347z M141 356h10v1H141z M158 356h19v1H158z M325 356h10v1H325z M344 356h1v1H344z M143 357h6v1H143z M157 357h18v1H157z M325 357h9v1H325z M145 358h2v1H145z M156 358h18v1H156z M185 358h1v1H185z M325 358h8v1H325z M341 358h1v1H341z M155 359h17v1H155z M325 359h6v1H325z M340 359h1v1H340z M154 360h16v1H154z M325 360h5v1H325z M339 360h1v1H339z M154 361h13v1H154z M322 361h1v1H322z M325 361h4v1H325z M160 362h2v1H160z M317 362h1v1H317z M319 362h1v1H319z M326 362h1v1H326z M314 363h1v1H314z M182 365h1v1H182z M189 365h1v1H189z M200 367h1v1H200z M306 367h1v1H306z M182 368h1v1H182z M208 368h1v1H208z M305 368h1v1H305z M191 369h1v1H191z M207 369h2v1H207z M197 370h1v1H197z M206 370h2v1H206z M206 371h1v1H206z M306 371h2v1H306z M307 372h1v1H307z M311 372h1v1H311z M204 373h1v1H204z M220 373h1v1H220z M290 373h1v1H290z M300 373h1v1H300z M312 373h1v1H312z M203 374h1v1H203z M221 374h1v1H221z M225 374h2v1H225z M290 374h1v1H290z M297 374h1v1H297z M307 374h1v1H307z M320 374h1v1H320z M202 375h1v1H202z M227 375h1v1H227z M289 375h1v1H289z M201 376h1v1H201z M211 376h1v1H211z M220 376h1v1H220z M229 376h1v1H229z M231 376h1v1H231z M301 376h1v1H301z M221 377h2v1H221z M233 377h1v1H233z M241 377h1v1H241z M272 377h1v1H272z M222 378h1v1H222z M234 378h1v1H234z M237 378h1v1H237z M273 378h1v1H273z M278 378h1v1H278z M289 378h1v1H289z M308 378h1v1H308z M208 379h1v1H208z M220 379h1v1H220z M238 379h1v1H238z M266 379h1v1H266z M288 379h1v1H288z M219 380h1v1H219z M222 380h1v1H222z M267 381h1v1H267z M288 381h1v1H288z M268 382h1v1H268z M223 383h1v1H223z M269 383h1v1H269z M223 384h1v1H223z M238 384h1v1H238z M231 385h1v1H231z M272 385h1v1H272z M286 385h1v1H286z M232 386h1v1H232z M278 386h1v1H278z M284 386h2v1H284z M229 388h1v1H229z M221 389h1v1H221z M232 391h1v1H232z"/>
</svg>
